<?xml version="1.0" encoding="UTF-8" standalone="no" ?>
<!DOCTYPE svg PUBLIC "-//W3C//DTD SVG 1.1//EN" "http://www.w3.org/Graphics/SVG/1.1/DTD/svg11.dtd">
<svg xmlns="http://www.w3.org/2000/svg" xmlns:xlink="http://www.w3.org/1999/xlink" version="1.1" width="1280" height="1024" viewBox="0 0 1280 1024" xml:space="preserve">
<desc>Created with Fabric.js 5.3.0</desc>
<defs>
</defs>
<g transform="matrix(1 0 0 1 640 512)" id="background-logo"  >
<rect style="stroke: none; stroke-width: 0; stroke-dasharray: none; stroke-linecap: butt; stroke-dashoffset: 0; stroke-linejoin: miter; stroke-miterlimit: 4; fill: rgb(243,247,255); fill-rule: nonzero; opacity: 1;"  paint-order="stroke"  x="-640" y="-512" rx="0" ry="0" width="1280" height="1024" />
</g>
<g transform="matrix(-1.9211538461538464 0 0 1.9211538461538464 640 405.3236707344497)" id="logo-logo"  >
<g style=""  paint-order="stroke"   >
		<g transform="matrix(1.6940347610622564 0 0 -1.6940347610622564 0 0)"  >
<linearGradient id="SVGID_48_276016" gradientUnits="userSpaceOnUse" gradientTransform="matrix(0 167.79237 167.79237 0 130.9989 25.681982)"  x1="0" y1="0" x2="1" y2="0">
<stop offset="0%" style="stop-color:rgb(0,40,85);stop-opacity: 1"/>
<stop offset="100%" style="stop-color:rgb(4,102,200);stop-opacity: 1"/>
</linearGradient>
<path style="stroke: none; stroke-width: 1; stroke-dasharray: none; stroke-linecap: butt; stroke-dashoffset: 0; stroke-linejoin: miter; stroke-miterlimit: 4; fill: url(#SVGID_48_276016); fill-rule: nonzero; opacity: 1;"  paint-order="stroke"  transform=" translate(-130.999, -111.045)" d="M 60.279 124.455 C 60.279 124.455 228.039 132.185 186.839 65.435 L 186.839 65.435 C 196.939 77.83500000000001 202.999 93.655 202.999 110.885 L 202.999 110.885 C 202.999 150.645 170.759 182.885 130.999 182.885 L 130.999 182.885 C 95.87899999999999 182.885 66.62899999999999 157.73499999999999 60.278999999999996 124.45499999999998 M 58.998999999999995 110.88499999999999 C 58.998999999999995 82.695 75.208 58.27499999999999 98.81899999999999 46.46499999999999 L 98.81899999999999 46.46499999999999 C 197.27999999999997 111.76899999999999 62.917999999999985 124.21699999999998 60.316999999999986 124.451 L 60.316999999999986 124.451 L 60.280999999999985 124.45299999999999 L 60.30699999999999 124.45199999999998 C 60.28899999999999 124.45399999999998 60.27899999999999 124.45499999999998 60.27899999999999 124.45499999999998 L 60.27899999999999 124.45499999999998 C 59.438999999999986 120.06499999999998 58.99899999999999 115.52499999999998 58.99899999999999 110.88499999999999 M 60.316999999999986 124.451 L 66.27099999999999 124.18799999999999 L 66.27199999999999 124.18799999999999 C 66.30399999999999 124.18699999999998 66.329 124.213 66.33 124.243 L 66.33 124.243 C 66.331 124.274 66.307 124.3 66.27499999999999 124.301 L 66.27499999999999 124.301 L 60.30699999999999 124.452 C 60.30999999999999 124.452 60.313999999999986 124.452 60.316999999999986 124.451 M 77.93799999999999 123.476 C 77.92699999999999 123.385 77.993 123.30199999999999 78.085 123.292 L 78.085 123.292 L 78.091 123.291 L 89.86999999999999 121.964 L 89.88099999999999 121.963 C 89.88199999999999 121.963 89.88399999999999 121.963 89.88499999999999 121.963 L 89.88499999999999 121.963 C 90.038 121.948 90.17399999999999 122.06099999999999 90.18799999999999 122.214 L 90.18799999999999 122.214 C 90.20199999999998 122.367 90.08999999999999 122.503 89.93699999999998 122.516 L 89.93699999999998 122.516 L 78.11999999999998 123.62400000000001 C 78.11499999999998 123.62400000000001 78.10999999999997 123.62500000000001 78.10499999999998 123.62500000000001 L 78.10499999999998 123.62500000000001 C 78.01999999999998 123.62500000000001 77.94799999999998 123.56200000000001 77.93799999999997 123.47600000000001 M 101.25699999999998 120.64000000000001 C 101.21599999999998 120.42900000000002 101.35199999999998 120.22400000000002 101.56199999999998 120.18200000000002 L 101.56199999999998 120.18200000000002 L 101.58099999999999 120.17800000000001 L 113.19299999999998 117.85200000000002 L 113.22199999999998 117.84700000000002 C 113.22399999999998 117.84600000000002 113.22599999999998 117.84600000000002 113.22799999999998 117.84500000000003 L 113.22799999999998 117.84500000000003 C 113.49999999999999 117.79700000000003 113.76099999999998 117.97700000000003 113.80999999999997 118.24800000000003 L 113.80999999999997 118.24800000000003 C 113.85899999999998 118.52000000000004 113.67799999999997 118.78100000000003 113.40599999999998 118.83000000000003 L 113.40599999999998 118.83000000000003 L 101.70799999999997 120.94700000000003 C 101.68499999999997 120.95100000000004 101.66199999999996 120.95300000000003 101.63999999999997 120.95300000000003 L 101.63999999999997 120.95300000000003 C 101.45799999999997 120.95300000000003 101.29499999999997 120.82500000000003 101.25699999999998 120.64000000000003 M 124.22299999999998 115.61600000000003 C 124.12499999999999 115.29300000000003 124.30899999999998 114.95200000000003 124.63199999999999 114.85500000000003 L 124.63199999999999 114.85500000000003 C 128.404 113.72200000000004 132.131 112.44700000000003 135.76999999999998 110.97100000000003 L 135.76999999999998 110.97100000000003 C 135.77299999999997 110.97000000000003 135.77999999999997 110.96700000000003 135.783 110.96600000000004 L 135.783 110.96600000000004 C 136.15599999999998 110.82300000000004 136.57299999999998 111.00900000000004 136.71599999999998 111.38100000000004 L 136.71599999999998 111.38100000000004 C 136.85899999999998 111.75400000000005 136.67299999999997 112.17200000000004 136.29999999999998 112.31500000000004 L 136.29999999999998 112.31500000000004 C 132.58299999999997 113.74200000000005 128.795 114.95900000000005 124.97199999999998 116.02900000000004 L 124.97199999999998 116.02900000000004 C 124.91699999999997 116.04400000000004 124.86199999999998 116.05200000000004 124.80699999999997 116.05200000000004 L 124.80699999999997 116.05200000000004 C 124.54499999999997 116.05200000000004 124.30199999999998 115.88000000000004 124.22299999999997 115.61600000000003 M 146.03299999999996 106.98600000000003 C 145.80099999999996 106.58800000000004 145.93499999999995 106.07800000000003 146.33299999999997 105.84500000000003 L 146.33299999999997 105.84500000000003 C 149.69699999999997 103.87300000000003 152.88699999999997 101.60200000000003 155.64999999999998 98.90900000000002 L 155.64999999999998 98.90900000000002 C 155.652 98.90600000000002 155.65999999999997 98.89800000000002 155.66299999999998 98.89600000000002 L 155.66299999999998 98.89600000000002 C 156.04399999999998 98.53800000000001 156.641 98.55700000000002 156.999 98.93800000000002 L 156.999 98.93800000000002 C 157.356 99.31800000000001 157.337 99.91500000000002 156.956 100.27300000000001 L 156.956 100.27300000000001 C 153.99699999999999 103.05100000000002 150.649 105.33200000000001 147.161 107.29200000000002 L 147.161 107.29200000000002 C 147.032 107.36400000000002 146.892 107.39800000000001 146.754 107.39800000000001 L 146.754 107.39800000000001 C 146.46699999999998 107.39800000000001 146.188 107.25000000000001 146.033 106.986 M 162.696 90.935 C 162.155 90.717 161.894 90.102 162.112 89.561 L 162.112 89.561 C 163.527 86.051 163.974 82.21000000000001 163.554 78.44500000000001 L 163.554 78.44500000000001 C 163.553 78.43900000000001 163.552 78.429 163.552 78.424 L 163.552 78.424 C 163.492 77.783 163.964 77.21400000000001 164.605 77.15400000000001 L 164.605 77.15400000000001 C 165.24599999999998 77.09400000000001 165.815 77.56600000000002 165.875 78.20700000000001 L 165.875 78.20700000000001 L 165.876 78.215 C 166.25900000000001 82.31400000000001 165.687 86.557 164.064 90.364 L 164.064 90.364 L 164.061 90.37100000000001 C 163.89100000000002 90.77000000000001 163.501 91.01200000000001 163.09 91.01200000000001 L 163.09 91.01200000000001 C 162.959 91.01200000000001 162.82500000000002 90.98700000000001 162.696 90.93500000000002 M 160.305 67.50800000000001 C 158.669 64.019 156.61700000000002 60.71100000000001 154.347 57.55600000000001 L 154.347 57.55600000000001 C 154.34400000000002 57.55100000000001 154.335 57.53800000000001 154.33100000000002 57.53300000000001 L 154.33100000000002 57.53300000000001 C 153.895 56.90200000000001 154.05300000000003 56.037000000000006 154.68400000000003 55.60000000000001 L 154.68400000000003 55.60000000000001 C 155.31600000000003 55.165000000000006 156.18100000000004 55.32200000000001 156.616 55.95400000000001 L 156.616 55.95400000000001 C 158.901 59.260000000000005 160.97500000000002 62.74000000000001 162.63000000000002 66.44800000000001 L 162.63000000000002 66.44800000000001 C 162.91100000000003 67.08200000000001 162.63400000000001 67.83300000000001 162.00300000000001 68.12700000000001 L 162.00300000000001 68.12700000000001 C 161.828 68.209 161.645 68.24700000000001 161.46400000000003 68.24700000000001 L 161.46400000000003 68.24700000000001 C 160.98300000000003 68.24700000000001 160.52200000000002 67.97300000000001 160.30500000000004 67.50800000000001 M 146.949 48.505 C 144.30900000000003 45.615 141.549 42.835 138.699 40.155 L 138.699 40.155 C 138.68900000000002 40.145 138.15900000000002 39.615 137.74900000000002 39.205 L 137.74900000000002 39.205 C 139.50900000000001 39.364999999999995 141.24900000000002 39.585 142.96900000000002 39.875 L 142.96900000000002 39.875 C 145.169 42.115 147.48900000000003 44.575 149.17900000000003 46.505 L 149.17900000000003 46.505 C 149.71900000000002 47.125 149.66900000000004 48.055 149.05900000000003 48.605000000000004 L 149.05900000000003 48.605000000000004 C 148.77300000000002 48.867000000000004 148.41400000000002 48.996 148.05600000000004 48.996 L 148.05600000000004 48.996 C 147.64800000000005 48.996 147.24200000000005 48.829 146.94900000000004 48.505" stroke-linecap="round" />
</g>
</g>
</g>
<g transform="matrix(1.921153846153847 0 0 1.921153846153847 643.2491514423076 725.9675969266145)" id="text-logo"  >
<g style=""  paint-order="stroke"   >
		<g transform="matrix(1 0 0 1 0 0)" id="text-logo-path-0"  >
<path style="stroke: none; stroke-width: 0; stroke-dasharray: none; stroke-linecap: butt; stroke-dashoffset: 0; stroke-linejoin: miter; stroke-miterlimit: 4; fill: rgb(4,62,128); fill-rule: nonzero; opacity: 1;"  paint-order="stroke"  transform=" translate(-175.73499999999999, 18.11)" d="M 2.51 0 L 9.9 0 L 9.9 -14.74 L 22.09 -14.74 L 22.09 -21.51 L 9.9 -21.51 L 9.9 -29.43 L 24.69 -29.43 L 24.69 -36.22 L 2.51 -36.22 Z M 37.31 0 L 58.94 0 L 58.94 -6.77 L 44.7 -6.77 L 44.7 -36.22 L 37.31 -36.22 Z M 71.61 0 L 94.75 0 L 94.75 -6.77 L 79 -6.77 L 79 -14.74 L 92.15 -14.74 L 92.15 -21.51 L 79 -21.51 L 79 -29.43 L 94.75 -29.43 L 94.75 -36.22 L 71.61 -36.22 Z M 107.55 0 L 130.69 0 L 130.69 -6.77 L 114.94 -6.77 L 114.94 -14.74 L 128.09 -14.74 L 128.09 -21.51 L 114.94 -21.51 L 114.94 -29.43 L 130.69 -29.43 L 130.69 -36.22 L 107.55 -36.22 Z M 141.5 -29.43 L 151.13 -29.43 L 151.13 0 L 158.52 0 L 158.52 -29.43 L 168.12 -29.43 L 168.12 -36.22 L 141.5 -36.22 Z M 195.97 0 L 217.61 0 L 217.61 -6.77 L 203.36 -6.77 L 203.36 -36.22 L 195.97 -36.22 Z M 227.05 -36.22 L 240.99 -15.28 L 240.99 0 L 249.05 0 L 249.05 -15.28 L 262.91 -36.22 L 254.04 -36.22 L 245.1 -22.43 L 236.03 -36.22 Z M 273.92 0 L 281.31 0 L 281.31 -20.65 L 298.07 -2.69 L 303.36 0 L 303.36 -36.22 L 296.01 -36.22 L 295.92 -15.53 L 279.14 -33.54 L 273.92 -36.22 Z M 316.37 0 L 323.76 0 L 323.76 -16.93 C 325.84 -14.59 330.78 -8.94 338.58 0 L 348.96 0 L 331.99 -18.26 L 347.65 -36.22 L 338.04 -36.22 C 336.48 -34.38 334.09 -31.6 330.91 -27.91 C 327.73 -24.19 325.35 -21.42 323.76 -19.57 L 323.76 -36.22 L 316.37 -36.22 Z" stroke-linecap="round" />
</g>
</g>
</g>
<g transform="matrix(1.921153846153847 0 0 1.921153846153847 640.34641573939 797.0612031892349)" id="tagline-0df7688c-24a8-451d-8ab4-5ef46e6253de-logo"  >
<g style=""  paint-order="stroke"   >
		<g transform="matrix(1 0 0 1 5.684342e-14 0)" id="tagline-0df7688c-24a8-451d-8ab4-5ef46e6253de-logo-path-0"  >
<path style="stroke: none; stroke-width: 0; stroke-dasharray: none; stroke-linecap: butt; stroke-dashoffset: 0; stroke-linejoin: miter; stroke-miterlimit: 4; fill: rgb(115,115,115); fill-rule: nonzero; opacity: 1;"  paint-order="stroke"  transform=" translate(-172.47000000000003, 7.09)" d="M 0.27 -14.33 L 0.66 -9.45 L 2.58 -9.45 L 2.58 -14.33 Z M 3.18 -14.33 L 3.55 -9.45 L 5.47 -9.45 L 5.5 -14.33 Z M 12.37 -3.88 L 10.47 -2.21 C 11.1 -1.59 11.9 -1.05 12.87 -0.58 C 13.84 -0.11 14.75 0.13 15.61 0.13 C 16.45 0.13 17.24 -0.05 17.98 -0.42 C 18.72 -0.79 19.32 -1.27 19.78 -1.87 C 20.24 -2.47 20.5 -3.1 20.56 -3.76 C 20.59 -3.89 20.61 -4.03 20.61 -4.17 C 20.61 -8.15 13.85 -8.42 13.85 -10.01 C 13.85 -10.42 14.03 -10.76 14.37 -11.04 C 14.7 -11.31 15.14 -11.46 15.68 -11.46 L 15.71 -11.46 C 16.3 -11.45 16.76 -11.39 17.09 -11.29 C 17.42 -11.18 17.76 -10.95 18.11 -10.58 L 20.09 -12.09 C 19.64 -12.71 18.97 -13.2 18.06 -13.57 C 17.16 -13.95 16.29 -14.13 15.43 -14.13 C 14.62 -14.13 13.87 -13.92 13.19 -13.51 C 12.5 -13.11 11.98 -12.58 11.61 -11.94 C 11.23 -11.31 11.04 -10.63 11.04 -9.94 C 11.04 -6.37 17.59 -6.08 17.59 -4.06 C 17.59 -3.15 16.83 -2.67 15.53 -2.67 C 14.94 -2.67 14.34 -2.8 13.76 -3.04 C 13.16 -3.28 12.69 -3.56 12.37 -3.88 Z M 26.03 0 L 28.87 0 L 28.9 -8.13 L 32.28 -0.05 L 33.9 -0.05 L 37.31 -8.13 L 37.32 0 L 40.16 0 L 40.16 -14 L 36.71 -14 L 33.1 -5.17 L 29.46 -14 L 26.03 -14 Z M 44.78 0 L 47.87 0 L 48.99 -2.84 L 54.65 -2.84 L 55.79 0 L 58.87 0 L 53 -14 L 50.65 -14 Z M 50.06 -5.45 L 51.82 -9.75 L 53.58 -5.45 Z M 63.92 0 L 66.77 0 L 66.77 -5.45 C 66.88 -5.45 67.06 -5.45 67.31 -5.46 C 67.55 -5.47 67.75 -5.47 67.88 -5.47 C 68.34 -5.1 68.81 -4.62 69.26 -4.05 C 69.72 -3.48 70.09 -2.96 70.38 -2.51 C 70.65 -2.05 70.95 -1.55 71.27 -1.01 C 71.57 -0.47 71.78 -0.12 71.87 0.02 L 75.07 0.02 C 74.71 -0.6 74.35 -1.21 73.98 -1.83 C 73.61 -2.45 73.12 -3.2 72.51 -4.1 C 71.9 -5 71.41 -5.62 71.06 -5.97 C 71.61 -6.18 72.12 -6.45 72.56 -6.79 C 73 -7.13 73.36 -7.55 73.65 -8.08 C 73.94 -8.59 74.08 -9.16 74.08 -9.76 C 74.08 -10.83 73.71 -11.83 72.98 -12.63 C 72.24 -13.44 70.98 -13.97 69.42 -14 L 63.92 -13.97 Z M 66.77 -7.94 L 66.77 -11.5 C 67.91 -11.5 68.84 -11.46 69.56 -11.36 C 70.72 -11.21 71.14 -10.74 71.14 -9.7 C 71.14 -9.23 70.93 -8.85 70.51 -8.55 C 70.09 -8.25 69.56 -8.08 68.92 -8.03 C 68.28 -7.97 67.56 -7.94 66.77 -7.94 Z M 79.35 -11.37 L 83.07 -11.37 L 83.07 0 L 85.93 0 L 85.93 -11.37 L 89.64 -11.37 L 89.64 -14 L 79.35 -14 Z M 101.45 0 L 106.77 0 C 106.99 0 107.31 -0.01 107.72 -0.03 C 109.9 -0.24 111.73 -1.83 111.72 -4.03 C 111.72 -4.65 111.58 -5.23 111.3 -5.76 C 111.02 -6.3 110.62 -6.77 110.11 -7.14 C 110.94 -7.9 111.34 -8.82 111.34 -9.89 C 111.34 -10.68 111.14 -11.4 110.74 -12.02 C 109.92 -13.26 108.49 -13.95 106.85 -13.95 L 101.45 -13.94 Z M 105.1 -2.4 L 104.39 -2.4 L 104.39 -5.83 L 104.86 -5.83 C 105.99 -5.83 106.83 -5.77 107.38 -5.64 C 108.23 -5.51 108.74 -4.99 108.74 -4.08 C 108.74 -3.61 108.61 -3.25 108.36 -2.99 C 108.11 -2.72 107.75 -2.56 107.28 -2.5 C 106.72 -2.43 105.99 -2.4 105.1 -2.4 Z M 105.07 -8.08 L 104.39 -8.08 L 104.39 -11.53 L 105.07 -11.53 C 105.56 -11.53 106.1 -11.51 106.69 -11.47 C 107.72 -11.37 108.36 -10.81 108.36 -9.78 C 108.36 -8.77 107.71 -8.22 106.69 -8.13 C 106.18 -8.09 105.64 -8.08 105.07 -8.08 Z M 116.96 -6.08 C 116.96 -5.7 116.98 -5.32 117.01 -4.95 C 117.14 -3.38 117.69 -2.14 118.67 -1.23 C 119.65 -0.32 120.92 0.14 122.51 0.15 C 124.09 0.15 125.36 -0.31 126.34 -1.22 C 127.31 -2.13 127.85 -3.38 127.98 -4.95 C 128.01 -5.32 128.03 -5.7 128.03 -6.08 L 128.05 -13.97 L 125.19 -13.97 L 125.17 -5.97 L 125.17 -5.91 C 125.17 -3.75 124.29 -2.67 122.51 -2.67 C 120.72 -2.67 119.82 -3.77 119.82 -5.97 L 119.84 -13.97 L 116.98 -13.97 Z M 135.07 -3.88 L 133.17 -2.21 C 133.8 -1.59 134.6 -1.05 135.57 -0.58 C 136.54 -0.11 137.45 0.13 138.31 0.13 C 139.15 0.13 139.94 -0.05 140.68 -0.42 C 141.42 -0.79 142.02 -1.27 142.48 -1.87 C 142.94 -2.47 143.2 -3.1 143.26 -3.76 C 143.29 -3.89 143.31 -4.03 143.31 -4.17 C 143.31 -8.15 136.55 -8.42 136.55 -10.01 C 136.55 -10.42 136.73 -10.76 137.07 -11.04 C 137.4 -11.31 137.84 -11.46 138.38 -11.46 L 138.41 -11.46 C 139 -11.45 139.46 -11.39 139.79 -11.29 C 140.12 -11.18 140.46 -10.95 140.81 -10.58 L 142.79 -12.09 C 142.34 -12.71 141.67 -13.2 140.76 -13.57 C 139.86 -13.95 138.99 -14.13 138.13 -14.13 C 137.32 -14.13 136.57 -13.92 135.89 -13.51 C 135.2 -13.11 134.68 -12.58 134.3 -11.94 C 133.93 -11.31 133.74 -10.63 133.74 -9.94 C 133.74 -6.37 140.29 -6.08 140.29 -4.06 C 140.29 -3.15 139.53 -2.67 138.23 -2.67 C 137.64 -2.67 137.04 -2.8 136.45 -3.04 C 135.86 -3.28 135.39 -3.56 135.07 -3.88 Z M 148.73 0 L 151.59 0 L 151.59 -14 L 148.73 -14 Z M 157.42 0 L 160.27 0 L 160.27 -7.98 L 166.75 -1.04 L 168.79 0 L 168.79 -14 L 165.95 -14 L 165.92 -6 L 159.43 -12.96 L 157.42 -14 Z M 174.34 0 L 183.28 0 L 183.28 -2.61 L 177.2 -2.61 L 177.2 -5.69 L 182.28 -5.69 L 182.28 -8.31 L 177.2 -8.31 L 177.2 -11.37 L 183.28 -11.37 L 183.28 -14 L 174.34 -14 Z M 190.26 -3.88 L 188.36 -2.21 C 188.99 -1.59 189.79 -1.05 190.76 -0.58 C 191.73 -0.11 192.65 0.13 193.51 0.13 C 194.35 0.13 195.14 -0.05 195.87 -0.42 C 196.61 -0.79 197.22 -1.27 197.68 -1.87 C 198.13 -2.47 198.39 -3.1 198.46 -3.76 C 198.49 -3.89 198.51 -4.03 198.51 -4.17 C 198.51 -8.15 191.74 -8.42 191.74 -10.01 C 191.75 -10.42 191.92 -10.76 192.26 -11.04 C 192.6 -11.31 193.04 -11.46 193.58 -11.46 L 193.61 -11.46 C 194.2 -11.45 194.65 -11.39 194.99 -11.29 C 195.32 -11.18 195.66 -10.95 196.01 -10.58 L 197.98 -12.09 C 197.53 -12.71 196.86 -13.2 195.96 -13.57 C 195.05 -13.95 194.18 -14.13 193.33 -14.13 C 192.51 -14.13 191.77 -13.92 191.09 -13.51 C 190.4 -13.11 189.87 -12.58 189.5 -11.94 C 189.13 -11.31 188.94 -10.63 188.94 -9.94 C 188.94 -6.37 195.48 -6.08 195.48 -4.06 C 195.48 -3.15 194.73 -2.67 193.43 -2.67 C 192.84 -2.67 192.24 -2.8 191.65 -3.04 C 191.05 -3.28 190.59 -3.56 190.26 -3.88 Z M 205.44 -3.88 L 203.54 -2.21 C 204.17 -1.59 204.96 -1.05 205.94 -0.58 C 206.91 -0.11 207.82 0.13 208.68 0.13 C 209.52 0.13 210.31 -0.05 211.05 -0.42 C 211.79 -0.79 212.39 -1.27 212.85 -1.87 C 213.31 -2.47 213.56 -3.1 213.63 -3.76 C 213.66 -3.89 213.68 -4.03 213.68 -4.17 C 213.68 -8.15 206.92 -8.42 206.92 -10.01 C 206.92 -10.42 207.1 -10.76 207.44 -11.04 C 207.77 -11.31 208.21 -11.46 208.75 -11.46 L 208.78 -11.46 C 209.37 -11.45 209.83 -11.39 210.16 -11.29 C 210.49 -11.18 210.83 -10.95 211.18 -10.58 L 213.16 -12.09 C 212.71 -12.71 212.04 -13.2 211.13 -13.57 C 210.23 -13.95 209.36 -14.13 208.5 -14.13 C 207.69 -14.13 206.94 -13.92 206.26 -13.51 C 205.57 -13.11 205.05 -12.58 204.67 -11.94 C 204.3 -11.31 204.11 -10.63 204.11 -9.94 C 204.11 -6.37 210.66 -6.08 210.66 -4.06 C 210.66 -3.15 209.9 -2.67 208.6 -2.67 C 208.01 -2.67 207.41 -2.8 206.82 -3.04 C 206.23 -3.28 205.76 -3.56 205.44 -3.88 Z M 224.95 -6.99 C 224.95 -5.64 225.36 -4.28 226.09 -3.19 C 227.15 -1.55 228.87 -0.3 230.77 -0.02 C 231.16 0.05 231.54 0.08 231.92 0.08 C 232.18 0.08 232.45 0.07 232.72 0.03 C 233.19 -0.01 233.65 -0.12 234.11 -0.3 C 234.57 -0.47 234.95 -0.66 235.24 -0.86 C 235.53 -1.06 235.81 -1.29 236.09 -1.54 C 236.36 -1.79 236.53 -1.97 236.62 -2.07 C 236.69 -2.16 236.76 -2.23 236.8 -2.29 L 235.37 -4.1 L 235.26 -3.98 C 234.98 -3.7 234.12 -2.99 233.14 -2.87 C 232.33 -2.7 231.6 -2.7 230.96 -2.87 C 230.33 -3.05 229.78 -3.34 229.34 -3.76 C 228.45 -4.6 227.96 -5.78 227.96 -7.01 C 227.96 -8.82 229.06 -10.61 230.96 -11.11 C 231.6 -11.28 232.33 -11.29 233.14 -11.11 C 233.6 -11.06 234.14 -10.87 234.47 -10.7 C 234.62 -10.62 234.79 -10.53 234.95 -10.43 C 235.26 -10.22 235.31 -10.16 235.37 -10.12 L 236.8 -11.92 L 236.63 -12.12 C 236.38 -12.38 235.87 -12.79 235.25 -13.19 C 234.62 -13.59 233.65 -13.94 232.72 -14.03 C 232.46 -14.05 232.2 -14.07 231.94 -14.07 C 231.55 -14.08 231.16 -14.04 230.77 -13.97 C 229.71 -13.8 228.75 -13.39 227.86 -12.73 C 226.97 -12.05 226.26 -11.21 225.73 -10.2 C 225.21 -9.19 224.95 -8.12 224.95 -6.99 Z M 242.05 -4.28 L 242.05 -4.28 C 242.41 -3.4 242.9 -2.64 243.51 -1.99 C 244.11 -1.34 244.84 -0.83 245.69 -0.44 C 246.53 -0.05 247.41 0.15 248.32 0.15 C 249.24 0.15 250.12 -0.05 250.96 -0.44 C 251.8 -0.83 252.53 -1.34 253.14 -1.99 C 253.74 -2.64 254.22 -3.4 254.58 -4.28 C 254.94 -5.15 255.12 -6.07 255.12 -7.01 L 255.12 -7.05 C 255.12 -7.97 254.95 -8.87 254.59 -9.73 C 254.23 -10.6 253.75 -11.36 253.14 -12.01 C 252.54 -12.65 251.81 -13.17 250.97 -13.56 C 250.13 -13.95 249.25 -14.14 248.34 -14.14 C 247.43 -14.14 246.55 -13.95 245.71 -13.56 C 244.86 -13.17 244.13 -12.65 243.52 -12.01 C 242.9 -11.36 242.41 -10.6 242.05 -9.73 C 241.32 -7.98 241.32 -6.03 242.05 -4.28 Z M 244.53 -7.01 C 244.53 -8.19 244.89 -9.19 245.62 -9.99 C 246.35 -10.79 247.25 -11.19 248.34 -11.19 C 250.46 -11.23 252.15 -9.35 252.11 -7.01 C 252.11 -5.8 251.75 -4.81 251.03 -4.01 C 250.31 -3.2 249.41 -2.81 248.32 -2.81 L 248.3 -2.81 C 247.23 -2.81 246.34 -3.2 245.62 -4 C 244.89 -4.81 244.53 -5.8 244.53 -7.01 Z M 260.56 0 L 263.41 0 L 263.41 -7.98 L 269.89 -1.04 L 271.93 0 L 271.93 -14 L 269.09 -14 L 269.06 -6 L 262.58 -12.96 L 260.56 -14 Z M 277.48 0 L 280.34 0 L 280.34 -7.98 L 286.81 -1.04 L 288.86 0 L 288.86 -14 L 286.02 -14 L 285.98 -6 L 279.5 -12.96 L 277.48 -14 Z M 294.41 0 L 303.35 0 L 303.35 -2.61 L 297.27 -2.61 L 297.27 -5.69 L 302.35 -5.69 L 302.35 -8.31 L 297.27 -8.31 L 297.27 -11.37 L 303.35 -11.37 L 303.35 -14 L 294.41 -14 Z M 308.24 -6.99 C 308.24 -5.64 308.65 -4.28 309.39 -3.19 C 310.44 -1.55 312.17 -0.3 314.06 -0.02 C 314.45 0.05 314.83 0.08 315.21 0.08 C 315.48 0.08 315.74 0.07 316.01 0.03 C 316.48 -0.01 316.95 -0.12 317.4 -0.3 C 317.86 -0.47 318.24 -0.66 318.53 -0.86 C 318.82 -1.06 319.11 -1.29 319.38 -1.54 C 319.65 -1.79 319.83 -1.97 319.91 -2.07 C 319.99 -2.16 320.05 -2.23 320.09 -2.29 L 318.67 -4.1 L 318.56 -3.98 C 318.28 -3.7 317.41 -2.99 316.43 -2.87 C 315.63 -2.7 314.9 -2.7 314.26 -2.87 C 313.62 -3.05 313.07 -3.34 312.63 -3.76 C 311.74 -4.6 311.25 -5.78 311.25 -7.01 C 311.25 -8.82 312.36 -10.61 314.26 -11.11 C 314.9 -11.28 315.63 -11.29 316.43 -11.11 C 316.9 -11.06 317.43 -10.87 317.76 -10.7 C 317.92 -10.62 318.08 -10.53 318.24 -10.43 C 318.56 -10.22 318.61 -10.16 318.67 -10.12 L 320.09 -11.92 L 319.92 -12.12 C 319.68 -12.38 319.16 -12.79 318.54 -13.19 C 317.92 -13.59 316.95 -13.94 316.01 -14.03 C 315.75 -14.05 315.49 -14.07 315.24 -14.07 C 314.85 -14.08 314.46 -14.04 314.06 -13.97 C 313 -13.8 312.04 -13.39 311.15 -12.73 C 310.27 -12.05 309.55 -11.21 309.03 -10.2 C 308.51 -9.19 308.24 -8.12 308.24 -6.99 Z M 324.48 -11.37 L 328.2 -11.37 L 328.2 0 L 331.05 0 L 331.05 -11.37 L 334.76 -11.37 L 334.76 -14 L 324.48 -14 Z M 339.45 -14.33 L 339.84 -9.45 L 341.76 -9.45 L 341.76 -14.33 Z M 342.36 -14.33 L 342.73 -9.45 L 344.65 -9.45 L 344.67 -14.33 Z" stroke-linecap="round" />
</g>
</g>
</g>
<g transform="matrix(1.2902613670663388 0 0 1.2902613670663388 538.5398552721518 392.49384950774356)" id="shape-3a43ecbf-3c3f-4120-bf50-f8ff0879ea5b"  >
<g style=""  paint-order="stroke"   >
		<g transform="matrix(1 0 0 1 0 0)" id="Layer_1"  >
<linearGradient id="SVGID_51_8_7_7_7_7_7_7_276033" gradientUnits="userSpaceOnUse" gradientTransform="matrix(1 0 0 1 0 0)"  x1="0" y1="0" x2="0" y2="100">
<stop offset="0%" style="stop-color:rgb(245,81,95);stop-opacity: 1"/>
<stop offset="100%" style="stop-color:rgb(159,4,27);stop-opacity: 1"/>
</linearGradient>
<path style="stroke: none; stroke-width: 1; stroke-dasharray: none; stroke-linecap: butt; stroke-dashoffset: 0; stroke-linejoin: miter; stroke-miterlimit: 4; fill: url(#SVGID_51_8_7_7_7_7_7_7_276033); fill-rule: nonzero; opacity: 1;"  paint-order="stroke"  transform=" translate(-35, -50.050000000000004)" d="M 35 0 C 15.7 0 0 15.8 0 35.2 C 0 41.7 1.8 48.1 5.2 53.7 L 33 98.7 C 33.5 99.60000000000001 34.5 100.10000000000001 35.5 100.10000000000001 C 35.5 100.10000000000001 35.5 100.10000000000001 35.5 100.10000000000001 C 36.5 100.10000000000001 37.5 99.60000000000001 38 98.7 L 65.1 53.300000000000004 C 68.3 47.900000000000006 70 41.60000000000001 70 35.300000000000004 C 70 15.8 54.3 0 35 0 z M 35 46.9 C 28.5 46.9 23.3 41.6 23.3 35.099999999999994 C 23.3 28.599999999999994 28.6 23.299999999999994 35 23.299999999999994 C 41.4 23.299999999999994 46.7 28.599999999999994 46.7 35.099999999999994 C 46.7 41.5 41.6 46.9 35 46.9 z" stroke-linecap="round" />
</g>
</g>
</g>
</svg>