<svg width="50" height="50" viewBox="0 0 50 50" fill="none" xmlns="http://www.w3.org/2000/svg">
<path d="M49.5486 20.3343C49.5486 20.3343 -8.71527 17.6532 5.59029 40.8774C2.11806 36.5599 7.62939e-06 31.0585 7.62939e-06 25.0696C7.62939e-06 11.2117 11.1806 -7.62939e-06 25 -7.62939e-06C37.1875 -7.62939e-06 47.3611 8.73955 49.5486 20.3343ZM50 25.0696C50 34.8886 44.375 43.3844 36.1806 47.493C1.97918 24.7563 48.6458 20.4039 49.5486 20.3343C49.8611 21.8663 50 23.4331 50 25.0696ZM49.5486 20.3343L47.4653 20.4387C47.4653 20.4387 47.4306 20.4387 47.4306 20.4039C47.4306 20.4039 47.4306 20.3691 47.4653 20.3691L49.5486 20.3343ZM43.4375 20.6824C43.4375 20.7173 43.4028 20.7521 43.4028 20.7521L39.3056 21.2047C39.2361 21.2047 39.2014 21.1699 39.2014 21.1003C39.2014 21.0306 39.2361 20.9958 39.3056 20.9958L43.4028 20.6128C43.4028 20.6128 43.4375 20.6476 43.4375 20.6824ZM35.3125 21.6574C35.3125 21.727 35.2778 21.7967 35.2083 21.8315L31.1806 22.6323C31.0764 22.6323 31.007 22.5975 30.9722 22.493C30.9722 22.3886 31.007 22.3189 31.1111 22.2841L35.1736 21.5529C35.1736 21.5529 35.1736 21.5529 35.2083 21.5529C35.2431 21.5529 35.3125 21.5877 35.3125 21.6574ZM27.3611 23.3983C27.3958 23.5028 27.3264 23.6421 27.2222 23.6769C25.9028 24.0599 24.6181 24.5125 23.3681 25.0348C23.2292 25.0696 23.0903 25.0348 23.0556 24.8955C23.0208 24.7563 23.0556 24.617 23.1945 24.5822C24.4445 24.0599 25.7639 23.6421 27.0833 23.2591C27.1181 23.2591 27.1181 23.2591 27.1528 23.2591C27.257 23.2591 27.3264 23.3287 27.3611 23.3983ZM19.7917 26.4276C19.8611 26.5668 19.8264 26.7409 19.6875 26.8106C18.507 27.507 17.3958 28.273 16.4583 29.2131C16.3195 29.3524 16.1111 29.3175 16.007 29.2131C15.8681 29.0738 15.9028 28.8649 16.007 28.7604C17.0486 27.7855 18.1945 26.9847 19.4097 26.3231C19.4445 26.2883 19.5139 26.2883 19.5486 26.2883C19.6181 26.2535 19.7222 26.3231 19.7917 26.4276ZM13.9931 31.9986C14.1667 32.0682 14.2708 32.2772 14.2014 32.4861C13.7153 33.7047 13.5417 35.0627 13.7153 36.351C13.75 36.5599 13.5764 36.7688 13.3333 36.8036C13.125 36.8384 12.9167 36.6643 12.882 36.4206C12.7431 34.993 12.9514 33.5306 13.507 32.2075C13.5764 32.0682 13.7153 31.9986 13.8542 31.9986C13.8889 31.9638 13.9583 31.9986 13.9931 31.9986ZM14.8264 40.1462C15.382 41.3649 16.1111 42.5139 16.9097 43.6281C17.0486 43.837 17.0139 44.1504 16.7708 44.2897C16.5625 44.429 16.25 44.3941 16.1111 44.1504C15.3125 43.0014 14.5833 41.7827 14.0278 40.4944C13.9236 40.2855 14.0278 40.007 14.2361 39.9025C14.3056 39.8677 14.375 39.8677 14.4097 39.8677C14.5833 39.9025 14.757 40.007 14.8264 40.1462ZM19.4445 46.7618C20.3472 47.7716 21.3195 48.7465 22.2917 49.6866C22.2917 49.6866 22.4653 49.8607 22.6389 50C22.0139 49.9304 21.4236 49.8607 20.8333 49.7563C20.0695 48.9902 19.2708 48.1198 18.6806 47.4582C18.507 47.2493 18.507 46.9359 18.7153 46.727C18.8195 46.6226 18.9236 46.5877 19.0625 46.5877C19.2361 46.5877 19.375 46.6574 19.4445 46.7618Z" fill="url(#paint0_linear_1_1787)"/>
<path d="M14.1747 16.7114C11.5179 16.7114 9.35669 18.8925 9.35669 21.5705C9.35669 22.4677 9.60447 23.3512 10.0725 24.1242L13.8994 30.3361C13.9682 30.4603 14.1059 30.5294 14.2435 30.5294C14.3812 30.5294 14.5189 30.4603 14.5877 30.3361L18.3182 24.0828C18.7587 23.3374 18.9927 22.4677 18.9927 21.5981C18.9927 18.8925 16.8315 16.7114 14.1747 16.7114ZM14.1747 23.1994C13.2799 23.1994 12.5641 22.4677 12.5641 21.5705C12.5641 20.6732 13.2937 19.9278 14.1747 19.9278C15.0557 19.9278 15.7853 20.6594 15.7853 21.5567C15.7853 22.4401 15.0833 23.1994 14.1747 23.1994Z" fill="url(#paint1_linear_1_1787)"/>
<defs>
<linearGradient id="paint0_linear_1_1787" x1="25.4948" y1="-0.0226435" x2="25.4948" y2="50.0454" gradientUnits="userSpaceOnUse">
<stop stop-color="#0466C8"/>
<stop offset="1" stop-color="#002855"/>
</linearGradient>
<linearGradient id="paint1_linear_1_1787" x1="14.1729" y1="16.7158" x2="14.1729" y2="34.5451" gradientUnits="userSpaceOnUse">
<stop stop-color="#F5515F"/>
<stop offset="1" stop-color="#9F041B"/>
</linearGradient>
</defs>
</svg>
