<svg width="205" height="50" viewBox="0 0 205 50" fill="none" xmlns="http://www.w3.org/2000/svg">
<path d="M49.5486 20.3343C49.5486 20.3343 -8.71527 17.6532 5.59029 40.8774C2.11806 36.5599 7.62939e-06 31.0585 7.62939e-06 25.0696C7.62939e-06 11.2117 11.1806 -7.62939e-06 25 -7.62939e-06C37.1875 -7.62939e-06 47.3611 8.73955 49.5486 20.3343ZM50 25.0696C50 34.8886 44.375 43.3844 36.1806 47.493C1.97918 24.7563 48.6458 20.4039 49.5486 20.3343C49.8611 21.8663 50 23.4331 50 25.0696ZM49.5486 20.3343L47.4653 20.4387C47.4653 20.4387 47.4306 20.4387 47.4306 20.4039C47.4306 20.4039 47.4306 20.3691 47.4653 20.3691L49.5486 20.3343ZM43.4375 20.6824C43.4375 20.7173 43.4028 20.7521 43.4028 20.7521L39.3056 21.2047C39.2361 21.2047 39.2014 21.1699 39.2014 21.1003C39.2014 21.0306 39.2361 20.9958 39.3056 20.9958L43.4028 20.6128C43.4028 20.6128 43.4375 20.6476 43.4375 20.6824ZM35.3125 21.6574C35.3125 21.727 35.2778 21.7967 35.2083 21.8315L31.1806 22.6323C31.0764 22.6323 31.007 22.5975 30.9722 22.493C30.9722 22.3886 31.007 22.3189 31.1111 22.2841L35.1736 21.5529C35.1736 21.5529 35.1736 21.5529 35.2083 21.5529C35.2431 21.5529 35.3125 21.5877 35.3125 21.6574ZM27.3611 23.3983C27.3958 23.5028 27.3264 23.6421 27.2222 23.6769C25.9028 24.0599 24.6181 24.5125 23.3681 25.0348C23.2292 25.0696 23.0903 25.0348 23.0556 24.8955C23.0208 24.7563 23.0556 24.617 23.1945 24.5822C24.4445 24.0599 25.7639 23.6421 27.0833 23.2591C27.1181 23.2591 27.1181 23.2591 27.1528 23.2591C27.257 23.2591 27.3264 23.3287 27.3611 23.3983ZM19.7917 26.4276C19.8611 26.5668 19.8264 26.7409 19.6875 26.8106C18.507 27.507 17.3958 28.273 16.4583 29.2131C16.3195 29.3524 16.1111 29.3175 16.007 29.2131C15.8681 29.0738 15.9028 28.8649 16.007 28.7604C17.0486 27.7855 18.1945 26.9847 19.4097 26.3231C19.4445 26.2883 19.5139 26.2883 19.5486 26.2883C19.6181 26.2535 19.7222 26.3231 19.7917 26.4276ZM13.9931 31.9986C14.1667 32.0682 14.2708 32.2772 14.2014 32.4861C13.7153 33.7047 13.5417 35.0627 13.7153 36.351C13.75 36.5599 13.5764 36.7688 13.3333 36.8036C13.125 36.8384 12.9167 36.6643 12.882 36.4206C12.7431 34.993 12.9514 33.5306 13.507 32.2075C13.5764 32.0682 13.7153 31.9986 13.8542 31.9986C13.8889 31.9638 13.9583 31.9986 13.9931 31.9986ZM14.8264 40.1462C15.382 41.3649 16.1111 42.5139 16.9097 43.6281C17.0486 43.837 17.0139 44.1504 16.7708 44.2897C16.5625 44.429 16.25 44.3941 16.1111 44.1504C15.3125 43.0014 14.5833 41.7827 14.0278 40.4944C13.9236 40.2855 14.0278 40.007 14.2361 39.9025C14.3056 39.8677 14.375 39.8677 14.4097 39.8677C14.5833 39.9025 14.757 40.007 14.8264 40.1462ZM19.4445 46.7618C20.3472 47.7716 21.3195 48.7465 22.2917 49.6866C22.2917 49.6866 22.4653 49.8607 22.6389 50C22.0139 49.9304 21.4236 49.8607 20.8333 49.7563C20.0695 48.9902 19.2708 48.1198 18.6806 47.4582C18.507 47.2493 18.507 46.9359 18.7153 46.727C18.8195 46.6226 18.9236 46.5877 19.0625 46.5877C19.2361 46.5877 19.375 46.6574 19.4445 46.7618Z" fill="url(#paint0_linear_1_1786)"/>
<path d="M14.1747 16.7114C11.5179 16.7114 9.35669 18.8925 9.35669 21.5705C9.35669 22.4677 9.60447 23.3512 10.0725 24.1242L13.8994 30.3361C13.9682 30.4603 14.1059 30.5294 14.2435 30.5294C14.3812 30.5294 14.5189 30.4603 14.5877 30.3361L18.3182 24.0828C18.7587 23.3374 18.9927 22.4677 18.9927 21.5981C18.9927 18.8925 16.8315 16.7114 14.1747 16.7114ZM14.1747 23.1994C13.2799 23.1994 12.5641 22.4677 12.5641 21.5705C12.5641 20.6732 13.2937 19.9278 14.1747 19.9278C15.0557 19.9278 15.7853 20.6594 15.7853 21.5567C15.7853 22.4401 15.0833 23.1994 14.1747 23.1994Z" fill="url(#paint1_linear_1_1786)"/>
<path d="M68.1207 26.0995H70.8905V20.5923H75.457V18.0447H70.8905V15.085H76.4302V12.5375H68.1207V26.0995ZM81.1464 26.0995H89.2314V23.552H83.9163V12.5375H81.1464V26.0995ZM93.9851 26.0995H102.631V23.552H96.7175V20.5548H101.658V18.0073H96.7175V15.0476H102.631V12.5H93.9851V26.0995ZM107.423 26.0995H116.106V23.552H110.192V20.5548H115.096V18.0073H110.192V15.0476H116.106V12.5H107.46V26.0995H107.423ZM120.149 15.085H123.742V26.0995H126.512V15.085H130.105V12.5375H120.149V15.085ZM140.511 26.0995H148.596V23.552H143.281V12.5375H140.511V26.0995ZM152.152 12.5375L157.392 20.3675V26.0995H160.424V20.3675L165.627 12.5375H162.296L158.927 17.7075L155.521 12.5375H152.152ZM169.707 26.0995H172.477V18.3819L178.765 25.1255L180.749 26.137V12.5749H178.016L177.979 20.33L171.691 13.5865L169.744 12.5749V26.0995H169.707ZM185.577 26.0995H188.347V19.7681C189.133 20.6298 190.967 22.7652 193.887 26.0995H197.78L191.416 19.2436L197.293 12.5H193.7C193.101 13.1744 192.202 14.2234 191.042 15.6095C189.844 16.9957 188.946 18.0447 188.385 18.7191V12.5H185.615V26.0995H185.577Z" fill="#043E80"/>
<path d="M59.0909 31.0283L59.2406 32.9764H59.9892V31.0283H59.0909ZM60.2138 31.0283L60.3635 32.9764H61.1122V31.0283H60.2138ZM64.2563 35.1868L63.5077 35.8612C63.7697 36.1234 64.0692 36.3107 64.4435 36.498C64.8178 36.6854 65.1921 36.7978 65.5289 36.7978C65.8658 36.7978 66.1653 36.7228 66.4647 36.573C66.7641 36.4231 66.9887 36.2358 67.1759 36.011C67.363 35.7862 67.4753 35.524 67.4753 35.2617C67.4753 35.2243 67.5128 35.1493 67.5128 35.1119C67.5128 33.5384 64.8178 33.426 64.8178 32.7891C64.8178 32.6392 64.8926 32.4894 65.0423 32.377C65.1921 32.2646 65.3418 32.2271 65.5664 32.2271C65.791 32.2271 65.9781 32.2646 66.1278 32.302C66.2401 32.3395 66.3898 32.4519 66.5396 32.6018L67.3256 32.0023C67.1384 31.7401 66.8764 31.5528 66.5396 31.4029C66.1653 31.253 65.8284 31.1781 65.4915 31.1781C65.1546 31.1781 64.8926 31.253 64.5932 31.4029C64.3312 31.5528 64.1066 31.7775 63.9569 32.0398C63.8071 32.302 63.7323 32.5643 63.7323 32.8265C63.7323 34.2502 66.315 34.3626 66.315 35.1493C66.315 35.524 66.0155 35.7113 65.4915 35.7113C65.2669 35.7113 65.0049 35.6738 64.7803 35.5614C64.5932 35.4116 64.406 35.2992 64.2563 35.1868ZM70.058 36.7228H71.1809V33.5009L72.5284 36.7228H73.1647L74.5122 33.5009V36.7228H75.6352V31.1781H74.2502L72.8279 34.6623L71.3681 31.1781H70.0206V36.7228H70.058ZM77.881 36.7228H79.1162L79.5653 35.5989H81.8112L82.2603 36.7228H83.4955L81.1749 31.1781H80.2391L77.881 36.7228ZM79.9771 34.5499L80.6883 32.864L81.3994 34.5499H79.9771ZM85.8537 36.7228H86.9766V34.5499C87.014 34.5499 87.0889 34.5499 87.2011 34.5499C87.3134 34.5499 87.3883 34.5499 87.4257 34.5499C87.6129 34.6998 87.8 34.8871 87.9872 35.1119C88.1743 35.3367 88.3241 35.5614 88.4363 35.7113C88.5486 35.8986 88.6609 36.0859 88.7732 36.3107C88.8855 36.5355 88.9978 36.6479 88.9978 36.7228H90.2704C90.1207 36.4606 89.971 36.2358 89.8213 35.9735C89.6716 35.7113 89.4844 35.449 89.2224 35.0744C88.9604 34.6998 88.7732 34.475 88.6609 34.3251C88.8855 34.2502 89.0727 34.1378 89.2598 33.9879C89.447 33.8381 89.5593 33.6882 89.709 33.4634C89.8213 33.2387 89.8587 33.0513 89.8587 32.7891C89.8587 32.377 89.709 31.9649 89.4095 31.6652C89.1101 31.3654 88.6235 31.1407 87.9872 31.1407H85.8162V36.7228H85.8537ZM87.014 33.5758V32.1522C87.4632 32.1522 87.8375 32.1897 88.1369 32.2271C88.5861 32.302 88.7732 32.4894 88.7732 32.9015C88.7732 33.0888 88.6984 33.2387 88.5112 33.351C88.3615 33.4634 88.1369 33.5384 87.8749 33.5758C87.5755 33.5758 87.3134 33.5758 87.014 33.5758ZM92.3665 32.2271H93.8263V36.7228H94.9492V32.2271H96.409V31.1781H92.3291V32.2271H92.3665ZM101.911 36.7228H104.007C104.082 36.7228 104.232 36.7228 104.382 36.7228C105.243 36.6479 105.991 36.011 105.991 35.1119C105.991 34.8496 105.916 34.6248 105.841 34.4375C105.729 34.2127 105.579 34.0254 105.355 33.8755C105.692 33.5758 105.841 33.2012 105.841 32.7891C105.841 32.4894 105.767 32.1897 105.617 31.9649C105.28 31.4778 104.719 31.2156 104.082 31.2156H101.949V36.7228H101.911ZM103.371 35.7862H103.072V34.4H103.259C103.708 34.4 104.045 34.4375 104.269 34.475C104.606 34.5124 104.793 34.7372 104.793 35.1119C104.793 35.2992 104.756 35.449 104.644 35.5614C104.531 35.6738 104.382 35.7113 104.195 35.7488C104.007 35.7488 103.708 35.7862 103.371 35.7862ZM103.334 33.5384H103.072V32.1522H103.334C103.521 32.1522 103.745 32.1522 103.97 32.1897C104.382 32.2271 104.644 32.4519 104.644 32.864C104.644 33.2761 104.382 33.5009 103.97 33.5009C103.783 33.5009 103.558 33.5384 103.334 33.5384ZM108.462 34.3251C108.462 34.475 108.462 34.6248 108.499 34.7747C108.536 35.4116 108.761 35.8986 109.173 36.2358C109.547 36.6104 110.071 36.7603 110.707 36.7978C111.344 36.7978 111.83 36.6104 112.205 36.2733C112.579 35.8986 112.804 35.4116 112.841 34.8122C112.841 34.6623 112.878 34.5124 112.878 34.3626V31.253H111.755V34.4375V34.475C111.755 35.3367 111.419 35.7488 110.707 35.7488C109.996 35.7488 109.622 35.2992 109.622 34.4375V31.253H108.499L108.462 34.3251ZM116.023 35.1868L115.274 35.8612C115.536 36.1234 115.835 36.3107 116.21 36.498C116.584 36.6854 116.958 36.7978 117.295 36.7978C117.632 36.7978 117.932 36.7228 118.231 36.573C118.53 36.4231 118.755 36.2358 118.942 36.011C119.129 35.7862 119.242 35.524 119.242 35.2617C119.242 35.2243 119.279 35.1493 119.279 35.1119C119.279 33.5384 116.584 33.426 116.584 32.7891C116.584 32.6392 116.659 32.4894 116.809 32.377C116.958 32.2646 117.108 32.2271 117.333 32.2271C117.557 32.2271 117.744 32.2646 117.894 32.302C118.006 32.3395 118.156 32.4519 118.306 32.6018L119.092 32.0023C118.905 31.7401 118.643 31.5528 118.306 31.4029C117.932 31.253 117.595 31.1781 117.258 31.1781C116.921 31.1781 116.659 31.253 116.359 31.4029C116.097 31.5528 115.873 31.7775 115.723 32.0398C115.573 32.302 115.499 32.5643 115.499 32.8265C115.499 34.2502 118.081 34.3626 118.081 35.1493C118.081 35.524 117.782 35.7113 117.258 35.7113C117.033 35.7113 116.771 35.6738 116.547 35.5614C116.322 35.4116 116.135 35.2992 116.023 35.1868ZM121.824 36.7228H122.947V31.1781H121.824V36.7228ZM125.642 36.7228H126.765V33.5758L129.348 36.3107L130.171 36.7228V31.1781H129.048V34.3626L126.466 31.5902L125.68 31.1781V36.7228H125.642ZM132.754 36.7228H136.31V35.6738H133.877V34.475H135.898V33.426H133.877V32.2271H136.31V31.1781H132.754V36.7228ZM139.454 35.1868L138.705 35.8612C138.967 36.1234 139.267 36.3107 139.641 36.498C140.015 36.6854 140.39 36.7978 140.727 36.7978C141.063 36.7978 141.363 36.7228 141.662 36.573C141.962 36.4231 142.186 36.2358 142.374 36.011C142.561 35.7862 142.673 35.524 142.673 35.2617C142.673 35.2243 142.71 35.1493 142.71 35.1119C142.71 33.5384 140.015 33.426 140.015 32.7891C140.015 32.6392 140.09 32.4894 140.24 32.377C140.39 32.2646 140.539 32.2271 140.764 32.2271C140.989 32.2271 141.176 32.2646 141.326 32.302C141.475 32.3395 141.588 32.4519 141.737 32.6018L142.523 32.0023C142.336 31.7401 142.074 31.5528 141.737 31.4029C141.363 31.253 141.026 31.1781 140.689 31.1781C140.352 31.1781 140.053 31.253 139.791 31.4029C139.529 31.5528 139.304 31.7775 139.155 32.0398C139.005 32.2271 138.93 32.4894 138.93 32.7891C138.93 34.2127 141.513 34.3251 141.513 35.1119C141.513 35.4865 141.213 35.6738 140.689 35.6738C140.465 35.6738 140.203 35.6364 139.978 35.524C139.753 35.4116 139.566 35.2992 139.454 35.1868ZM145.855 35.1868L145.106 35.8612C145.368 36.0859 145.667 36.3107 146.042 36.498C146.416 36.6854 146.79 36.7978 147.127 36.7978C147.464 36.7978 147.764 36.7228 148.063 36.573C148.362 36.4231 148.587 36.2358 148.774 36.011C148.961 35.7862 149.074 35.524 149.074 35.2617C149.074 35.2243 149.111 35.1493 149.111 35.1119C149.111 33.5384 146.416 33.426 146.416 32.7891C146.416 32.6392 146.491 32.4894 146.641 32.377C146.79 32.2271 146.94 32.1897 147.165 32.1897C147.389 32.1897 147.576 32.2271 147.726 32.2646C147.876 32.302 147.988 32.4144 148.138 32.5643L148.924 31.9649C148.737 31.7026 148.475 31.5153 148.138 31.3654C147.764 31.2156 147.427 31.1407 147.09 31.1407C146.753 31.1407 146.453 31.2156 146.191 31.3654C145.929 31.5153 145.705 31.7401 145.555 32.0023C145.405 32.2646 145.331 32.5268 145.331 32.7891C145.331 34.2127 147.913 34.3251 147.913 35.1119C147.913 35.4865 147.614 35.6738 147.09 35.6738C146.865 35.6738 146.603 35.6364 146.379 35.524C146.154 35.4116 146.004 35.2992 145.855 35.1868ZM154.389 33.9505C154.389 34.475 154.538 35.0369 154.838 35.449C155.25 36.0859 155.923 36.6104 156.672 36.7228C156.822 36.7603 156.971 36.7603 157.121 36.7603C157.233 36.7603 157.346 36.7603 157.421 36.7603C157.608 36.7228 157.795 36.6854 157.982 36.6104C158.169 36.5355 158.319 36.4606 158.431 36.3857C158.543 36.3107 158.656 36.2358 158.768 36.1234C158.88 36.011 158.955 35.9735 158.993 35.8986C159.03 35.8612 159.068 35.8237 159.068 35.8237L158.506 35.1119L158.469 35.1493C158.356 35.2617 158.019 35.5614 157.645 35.5989C157.308 35.6738 157.046 35.6738 156.784 35.5989C156.522 35.524 156.298 35.4116 156.111 35.2243C155.774 34.8871 155.549 34.4375 155.549 33.9505C155.549 33.2387 155.998 32.5268 156.747 32.3395C157.009 32.2646 157.308 32.2646 157.608 32.3395C157.795 32.377 157.982 32.4519 158.132 32.4894C158.207 32.5268 158.281 32.5643 158.319 32.6018C158.431 32.6767 158.469 32.7142 158.506 32.7142L159.068 32.0023L158.993 31.9274C158.88 31.815 158.693 31.6652 158.431 31.5153C158.169 31.3654 157.795 31.2156 157.421 31.1781C157.308 31.1781 157.233 31.1781 157.121 31.1781C156.971 31.1781 156.822 31.1781 156.672 31.2156C156.26 31.2905 155.886 31.4404 155.512 31.7026C155.175 31.9649 154.875 32.302 154.688 32.7142C154.464 33.0888 154.389 33.5009 154.389 33.9505ZM161.538 35.0369C161.688 35.3741 161.875 35.7113 162.099 35.9361C162.324 36.1983 162.623 36.3857 162.96 36.5355C163.297 36.6854 163.634 36.7603 164.008 36.7603C164.383 36.7603 164.757 36.7228 165.056 36.5355C165.393 36.3857 165.693 36.1983 165.917 35.9361C166.179 35.6738 166.366 35.3741 166.479 35.0369C166.628 34.6998 166.703 34.3251 166.703 33.9505C166.703 33.5758 166.628 33.2387 166.479 32.9015C166.329 32.5643 166.142 32.2646 165.917 32.0023C165.693 31.7401 165.393 31.5528 165.056 31.4029C164.757 31.1781 164.383 31.1032 164.046 31.1032C163.671 31.1032 163.335 31.1781 162.998 31.328C162.661 31.4778 162.361 31.7026 162.137 31.9274C161.912 32.1897 161.688 32.4894 161.538 32.8265C161.238 33.5758 161.238 34.3251 161.538 35.0369ZM162.511 33.9505C162.511 33.5009 162.661 33.0888 162.96 32.7516C163.26 32.4144 163.597 32.2646 164.046 32.2646C164.869 32.2646 165.543 32.9764 165.543 33.913C165.543 34.4 165.393 34.7747 165.131 35.1119C164.832 35.449 164.495 35.5989 164.046 35.5989C163.634 35.5989 163.26 35.449 162.998 35.1119C162.661 34.8122 162.511 34.4375 162.511 33.9505ZM169.286 36.7228H170.409V33.5758L172.992 36.3107L173.815 36.7228V31.1781H172.692V34.3626L170.109 31.5902L169.323 31.1781V36.7228H169.286ZM176.36 36.7228H177.483V33.5758L180.029 36.3107L180.852 36.7228V31.1781H179.729V34.3626L177.146 31.5902L176.36 31.1781V36.7228ZM183.472 36.7228H187.028V35.6738H184.595V34.475H186.616V33.426H184.595V32.2271H186.991V31.1781H183.472V36.7228ZM189.349 33.9505C189.349 34.475 189.498 35.0369 189.798 35.449C190.21 36.0859 190.883 36.6104 191.632 36.7228C191.782 36.7603 191.931 36.7603 192.081 36.7603C192.193 36.7603 192.306 36.7603 192.381 36.7603C192.568 36.7228 192.755 36.6854 192.942 36.6104C193.129 36.5355 193.279 36.4606 193.391 36.3857C193.503 36.3107 193.616 36.2358 193.728 36.1234C193.84 36.011 193.915 35.9735 193.953 35.8986C193.99 35.8612 193.99 35.8237 194.028 35.8237L193.466 35.1119L193.429 35.1493C193.316 35.2617 192.979 35.5614 192.605 35.5989C192.268 35.6738 192.006 35.6738 191.744 35.5989C191.482 35.524 191.258 35.4116 191.108 35.2617C190.734 34.9245 190.546 34.475 190.546 33.9879C190.546 33.2761 190.996 32.5643 191.744 32.377C192.006 32.302 192.268 32.302 192.605 32.377C192.792 32.4144 193.017 32.4894 193.129 32.5268C193.204 32.5643 193.241 32.6018 193.316 32.6392C193.429 32.7142 193.466 32.7516 193.466 32.7516L194.028 32.0398L193.953 31.9274C193.878 31.815 193.653 31.6652 193.391 31.5153C193.129 31.3654 192.755 31.2156 192.381 31.1781C192.268 31.1781 192.193 31.1781 192.081 31.1781C191.931 31.1781 191.782 31.1781 191.632 31.2156C191.22 31.2905 190.846 31.4404 190.472 31.7026C190.097 31.9649 189.835 32.302 189.648 32.7142C189.461 33.0888 189.349 33.5009 189.349 33.9505ZM196.161 32.2271H197.621V36.7228H198.744V32.2271H200.204V31.1781H196.124V32.2271H196.161ZM202.487 31.0283L202.637 32.9764H203.385V31.0283H202.487ZM203.647 31.0283L203.797 32.9764H204.545V31.0283H203.647Z" fill="#737373"/>
<defs>
<linearGradient id="paint0_linear_1_1786" x1="25.4948" y1="-0.0226435" x2="25.4948" y2="50.0454" gradientUnits="userSpaceOnUse">
<stop stop-color="#0466C8"/>
<stop offset="1" stop-color="#002855"/>
</linearGradient>
<linearGradient id="paint1_linear_1_1786" x1="14.1729" y1="16.7158" x2="14.1729" y2="34.5451" gradientUnits="userSpaceOnUse">
<stop stop-color="#F5515F"/>
<stop offset="1" stop-color="#9F041B"/>
</linearGradient>
</defs>
</svg>
